<svg t="1743412664583" class="icon" viewBox="0 0 1024 1024" version="1.1" xmlns="http://www.w3.org/2000/svg" p-id="4135" width="256" height="256"><path d="M87.445333 490.666667H3.669333L128 614.997333 252.330667 490.666667H173.312C194.304 322.282667 337.92 192 512 192c130.154667 0 243.370667 72.832 300.970667 180.181333l75.2-40.362666C816.277333 197.888 674.837333 106.666667 512 106.666667 290.773333 106.666667 108.842667 275.050667 87.445333 490.666667z m373.653334-149.333334h101.802666l138.389334 369.024-79.914667 29.952L575.786667 618.666667h-127.530667l-45.610667 121.642666-79.914666-29.952L461.098667 341.333333z m19.136 192h63.530666L512 448.64 480.234667 533.333333zM896 451.669333L1020.330667 576h-83.776C915.157333 791.616 733.248 960 512 960c-162.837333 0-304.277333-91.221333-376.170667-225.152l75.2-40.362667C268.629333 801.834667 381.845333 874.666667 512 874.666667c174.08 0 317.696-130.282667 338.688-298.666667h-79.018667L896 451.669333z" fill="currentColor" p-id="4136"></path></svg>