<svg t="1743412221247" class="icon" viewBox="0 0 1024 1024" version="1.1" xmlns="http://www.w3.org/2000/svg" p-id="3639" width="256" height="256"><path d="M302.677333 242.346667L781.653333 721.322667c104.213333-133.909333 94.784-327.594667-28.288-450.688-123.093333-123.093333-316.8-132.501333-450.688-28.288z m418.645334 539.306666L242.346667 302.677333c-104.213333 133.909333-94.784 327.594667 28.288 450.688 123.093333 123.093333 316.8 132.501333 450.688 28.288zM210.304 210.304c166.613333-166.613333 436.778667-166.613333 603.392 0 166.613333 166.613333 166.613333 436.778667 0 603.392-166.613333 166.613333-436.778667 166.613333-603.392 0-166.613333-166.613333-166.613333-436.778667 0-603.392z" fill="currentColor" p-id="3640"></path></svg>