<svg t="1743412730960" class="icon" viewBox="0 0 1024 1024" version="1.1" xmlns="http://www.w3.org/2000/svg" p-id="4297" width="256" height="256"><path d="M106.666667 170.666667a64 64 0 0 1 64-64h682.666666a64 64 0 0 1 64 64v137.621333a64 64 0 0 1-29.653333 53.994667L682.666667 492.757333V896h-85.333334V481.045333a64 64 0 0 1 29.653334-53.994666L832 296.576V192H192v104.576l205.013333 130.474667a64 64 0 0 1 29.653334 53.973333V789.333333h-85.333334V492.757333l-205.013333-130.474666A64 64 0 0 1 106.666667 308.309333V170.666667z" fill="currentColor" p-id="4298"></path></svg>