<svg t="1743412558655" class="icon" viewBox="0 0 1024 1024" version="1.1" xmlns="http://www.w3.org/2000/svg" p-id="3805" width="256" height="256"><path d="M85.333333 512C85.333333 276.352 276.352 85.333333 512 85.333333s426.666667 191.018667 426.666667 426.666667-191.018667 426.666667-426.666667 426.666667S85.333333 747.648 85.333333 512z m354.133334-85.781333v-9.856a50.56 50.56 0 0 1 13.568-34.453334C461.653333 372.906667 478.506667 362.666667 511.744 362.666667c31.253333 0 52.970667 14.933333 64.042667 31.850666 11.84 18.090667 9.514667 33.258667 3.882666 40.832-6.997333 9.472-15.701333 18.197333-26.197333 27.648-3.2 2.88-7.146667 6.314667-11.370667 9.984-7.552 6.570667-16 13.952-22.762666 20.373334C495.36 516.16 469.333333 547.968 469.333333 597.333333l0.128 21.610667 85.333334-0.554667-0.128-21.162666c0.042667-14.592 6.016-25.429333 23.488-42.048 5.888-5.589333 11.157333-10.176 17.194666-15.402667 4.48-3.84 9.365333-8.085333 15.210667-13.354667 12.16-10.944 25.706667-24.106667 37.696-40.277333 32.341333-43.669333 24.768-98.858667-1.066667-138.346667C620.629333 307.157333 572.266667 277.333333 511.744 277.333333c-52.352 0-92.949333 16.938667-120.362667 45.589334-26.666667 27.882667-37.162667 63.018667-37.248 93.226666v10.069334h85.333334zM469.461333 661.333333v85.504h85.333334V661.333333h-85.333334z" fill="currentColor" p-id="3806"></path></svg>