<svg t="1743405295444" class="icon" viewBox="0 0 1024 1024" version="1.1" xmlns="http://www.w3.org/2000/svg" p-id="32876" width="256" height="256"><path d="M512 512m-512 0a512 512 0 1 0 1024 0 512 512 0 1 0-1024 0Z" fill="#4096ff" p-id="32877" data-spm-anchor-id="a313x.search_index.0.i60.15393a81ODm9Y1" class="selected"></path><path d="M502.690909 814.545455c-32.581818 0-60.509091-27.927273-58.181818-60.509091 0-32.581818 25.6-60.509091 58.181818-60.509091s58.181818 27.927273 58.181818 60.509091c2.327273 32.581818-23.272727 60.509091-58.181818 60.509091z m167.563636-381.672728c-6.981818 13.963636-18.618182 27.927273-30.254545 39.563637s-32.581818 30.254545-60.509091 58.181818c-6.981818 6.981818-13.963636 13.963636-18.618182 20.945454-4.654545 4.654545-9.309091 11.636364-11.636363 16.290909-2.327273 4.654545-4.654545 9.309091-4.654546 13.963637-2.327273 4.654545-2.327273 13.963636-6.981818 25.6-4.654545 25.6-18.618182 37.236364-41.890909 37.236363-11.636364 0-23.272727-4.654545-30.254546-11.636363-9.309091-9.309091-11.636364-20.945455-11.636363-37.236364 0-20.945455 2.327273-37.236364 9.309091-53.527273 6.981818-13.963636 13.963636-27.927273 25.6-39.563636 9.309091-11.636364 23.272727-25.6 41.890909-39.563636 16.290909-13.963636 25.6-23.272727 32.581818-30.254546 6.981818-6.981818 11.636364-13.963636 16.290909-23.272727 4.654545-9.309091 6.981818-18.618182 6.981818-27.927273 0-18.618182-6.981818-37.236364-20.945454-48.872727-13.963636-13.963636-32.581818-20.945455-53.527273-20.945455-25.6 0-44.218182 6.981818-58.181818 20.945455-11.636364 13.963636-23.272727 32.581818-30.254546 60.509091-6.981818 27.927273-23.272727 41.890909-46.545454 41.890909-11.636364 0-25.6-4.654545-32.581818-13.963636-9.309091-9.309091-13.963636-18.618182-13.963637-30.254546 0-23.272727 6.981818-46.545455 20.945455-69.818182 13.963636-23.272727 34.909091-44.218182 62.836363-58.181818 27.927273-16.290909 60.509091-23.272727 97.745455-23.272727 34.909091 0 65.163636 6.981818 90.763636 18.618182 25.6 13.963636 46.545455 30.254545 60.509091 53.527272 13.963636 23.272727 20.945455 46.545455 20.945455 72.145455-2.327273 16.290909-6.981818 34.909091-13.963637 48.872727z" fill="#FFFFFF" p-id="32878"></path></svg>