<svg t="1743389248332" class="icon" viewBox="0 0 1024 1024" version="1.1" xmlns="http://www.w3.org/2000/svg" p-id="20586" width="256" height="256"><path d="M760 840a8 8 0 0 1 8 8v56a8 8 0 0 1-8 8H264a8 8 0 0 1-8-8v-56a8 8 0 0 1 8-8h496z m120-726c17.673 0 32 14.327 32 32v580c0 17.673-14.327 32-32 32H144c-17.673 0-32-14.327-32-32V146c0-17.673 14.327-32 32-32h736z m-40 72H184v500h656V186z" fill="currentColor" p-id="20587"></path><path d="M345.517 456.329l100.895-142.502a8 8 0 0 1 11.531-1.62l179.89 144.122H764a8 8 0 0 1 8 8v40a8 8 0 0 1-8 8H620.976a8 8 0 0 1-5.002-1.757L462.681 387.758 376.874 508.95a8 8 0 0 1-6.53 3.378H254a8 8 0 0 1-8-8v-40a8 8 0 0 1 8-8h91.517z" fill="#44D7B6" p-id="20588"></path></svg>