<svg t="1743404804513" class="icon" viewBox="0 0 1024 1024" version="1.1" xmlns="http://www.w3.org/2000/svg" p-id="13286" width="256" height="256"><path d="M512 0a512 512 0 1 0 512 512A512 512 0 0 0 512 0z" fill="#4096ff" p-id="13287" data-spm-anchor-id="a313x.search_index.0.i35.15393a81ODm9Y1" class="selected"></path><path d="M406.588235 331.294118a45.176471 45.176471 0 0 1 45.176471 45.17647v301.176471a45.176471 45.176471 0 0 1-45.176471 45.17647 45.176471 45.176471 0 0 1-45.17647-45.17647v-301.176471a45.176471 45.176471 0 0 1 45.17647-45.17647zM617.411765 331.294118a45.176471 45.176471 0 0 1 45.17647 45.17647v301.176471a45.176471 45.176471 0 0 1-45.17647 45.17647 45.176471 45.176471 0 0 1-45.176471-45.17647v-301.176471a45.176471 45.176471 0 0 1 45.176471-45.17647z" fill="#FFFFFF" p-id="13288"></path></svg>