<svg t="1743406941264" class="icon" viewBox="0 0 1024 1024" version="1.1" xmlns="http://www.w3.org/2000/svg" p-id="63643" width="256" height="256"><path d="M512 512m-512 0a512 512 0 1 0 1024 0 512 512 0 1 0-1024 0Z" fill="#4096ff" p-id="63644" data-spm-anchor-id="a313x.search_index.0.i105.15393a81ODm9Y1" class="selected"></path><path d="M512 281.6c109.44 0 201.0496 76.288 224.5504 178.5856h25.3696a32 32 0 0 1 24.9984 52.0064l-61.44 76.7872a32 32 0 0 1-49.9712 0l-61.44-76.8a32 32 0 0 1 24.9984-51.9936H656.64C635.392 400.8448 578.6496 358.4 512 358.4c-84.8256 0-153.6 68.7744-153.6 153.6s68.7744 153.6 153.6 153.6c31.2704 0 61.056-9.3184 86.3104-26.5216a38.4 38.4 0 1 1 43.2256 63.488A229.4784 229.4784 0 0 1 512 742.4c-127.2448 0-230.4-103.1552-230.4-230.4s103.1552-230.4 230.4-230.4z" fill="#FFFFFF" p-id="63645"></path></svg>