<svg t="1743412626727" class="icon" viewBox="0 0 1024 1024" version="1.1" xmlns="http://www.w3.org/2000/svg" p-id="3973" width="256" height="256"><path d="M359.893333 132.202667A64 64 0 0 1 421.546667 85.333333h180.906666a64 64 0 0 1 61.653334 46.869334l21.824 78.549333 78.933333-20.394667a64 64 0 0 1 71.424 29.973334l90.453333 156.672a64 64 0 0 1-9.770666 76.842666L859.882667 512l57.088 58.154667a64 64 0 0 1 9.770666 76.842666l-90.453333 156.672a64 64 0 0 1-71.424 29.973334l-78.933333-20.394667-21.802667 78.549333A64 64 0 0 1 602.453333 938.666667h-180.906666a64 64 0 0 1-61.653334-46.869334l-21.824-78.528-78.933333 20.373334A64 64 0 0 1 187.733333 803.669333l-90.453333-156.672a64 64 0 0 1 9.749333-76.842666L164.138667 512l-57.109334-58.154667a64 64 0 0 1-9.749333-76.842666l90.453333-156.672a64 64 0 0 1 71.424-29.973334l78.912 20.373334 21.802667-78.506667z m-27.434666 660.885333zM437.76 170.666667l-23.082667 83.093333a64 64 0 0 1-77.653333 44.842667l-83.498667-21.546667-74.24 128.576 60.416 61.525333a64 64 0 0 1 0 89.685334l-60.416 61.525333 74.24 128.597333 83.498667-21.546666a64 64 0 0 1 77.653333 44.821333L437.76 853.333333h148.48l23.082667-83.093333a64 64 0 0 1 77.653333-44.842667l83.52 21.546667 74.24-128.576-60.437333-61.525333a64 64 0 0 1 0-89.685334l60.437333-61.525333-74.24-128.597333-83.52 21.568a64 64 0 0 1-77.653333-44.842667L586.24 170.666667h-148.48zM512 426.666667a85.333333 85.333333 0 1 0 0 170.666666 85.333333 85.333333 0 0 0 0-170.666666z m-170.666667 85.333333a170.666667 170.666667 0 1 1 341.333334 0 170.666667 170.666667 0 0 1-341.333334 0z" fill="currentColor" p-id="3974"></path></svg>