<svg t="1743404509022" class="icon" viewBox="0 0 1024 1024" version="1.1" xmlns="http://www.w3.org/2000/svg" p-id="1826" width="256" height="256"><path d="M150.871891 874.454393c258.430169 257.875507 695.803071 169.684131 834.298091-168.190809C1123.707667 368.345978 874.237434-1.870067 509.354685 0.007253 144.471937 1.884573-101.115657 374.660599 40.878004 711.12755a515.196351 515.196351 0 0 0 109.993887 163.326843z" fill="#4096ff" p-id="1827" data-spm-anchor-id="a313x.search_index.0.i4.15393a81ODm9Y1" class="selected"></path><path d="M431.360571 687.618383c8.405274 4.607967 17.791874 6.997284 27.391806 7.03995 11.690584-0.085333 23.12517-3.583975 32.895767-10.069262l176.51075-116.436509c19.498529-12.927908 31.146446-34.85842 30.890448-58.282254a66.77286 66.77286 0 0 0-29.909122-56.703598l-178.089405-116.18051a58.026256 58.026256 0 0 0-60.543571-3.029312c-21.333182 12.586578-34.133092 35.79708-33.407763 60.586237v232.531687a67.754187 67.754187 0 0 0 34.26109 60.586237z" fill="#FFFFFF" p-id="1828"></path></svg>