<svg t="1743408635569" class="icon" viewBox="0 0 1024 1024" version="1.1" xmlns="http://www.w3.org/2000/svg" p-id="3853" data-spm-anchor-id="a313x.collections_detail.0.i2.56ed3a815ES4tb" width="256" height="256"><path d="M512 170.666667C323.477333 170.666667 170.666667 323.477333 170.666667 512s152.810667 341.333333 341.333333 341.333333 341.333333-152.810667 341.333333-341.333333S700.522667 170.666667 512 170.666667zM85.333333 512C85.333333 276.352 276.352 85.333333 512 85.333333s426.666667 191.018667 426.666667 426.666667-191.018667 426.666667-426.666667 426.666667S85.333333 747.648 85.333333 512z m341.333334-149.333333a64 64 0 0 0-64 64v170.666666a64 64 0 0 0 64 64h170.666666a64 64 0 0 0 64-64v-170.666666a64 64 0 0 0-64-64h-170.666666z" fill="currentColor" p-id="3854"></path></svg>